<svg width="512" height="512" xmlns="http://www.w3.org/2000/svg">
 <g>
  <title>Layer 1</title>
  <g id="note_3_">
   <path id="svg_1" d="m500.474884,113.200081l-95.25,-102.000008c-6.349884,-6.799897 -14.287384,-10.200105 -22.224884,-10.200105l-333.375031,0c-26.987688,0 -47.625003,22.100311 -47.625003,51.000002l0,408.000061c0,28.900208 20.637315,50.999969 47.625003,50.999969l412.750031,0c26.987488,0 47.625,-22.099762 47.625,-50.999969l0,-323.000061c0,-8.499985 -3.174988,-16.999985 -9.525116,-23.799889zm-22.224884,346.79995c0,10.200073 -6.349884,16.999969 -15.875,16.999969l-412.750031,0c-9.525097,0 -15.875004,-6.799896 -15.875004,-16.999969l0,-408.000061c0,-10.2001 6.349907,-16.999996 15.875004,-16.999996l317.500031,0l0,68.000004l0,0c0,28.900215 20.637512,51.000008 47.625,51.000008l15.875,0l47.625,0l0,306.000046zm-47.625,-323.000061l-15.875,0c-17.462616,0 -31.75,-15.299889 -31.75,-33.999992l0,0l0,-68.000004l95.25,101.999996l-47.625,0z" clip-rule="evenodd" fill-rule="evenodd"/>
   <path id="svg_2" d="m248.062469,119.999985l79.375031,0c4.762512,0 7.9375,-3.400208 7.9375,-8.500008s-3.174988,-8.5 -7.9375,-8.5l-79.375031,0c-4.762512,0 -7.9375,3.400215 -7.9375,8.5s3.174988,8.500008 7.9375,8.500008z" clip-rule="evenodd" fill-rule="evenodd"/>
   <path id="svg_3" d="m248.062469,170.999985l79.375031,0c4.762512,0 7.9375,-3.400208 7.9375,-8.5s-3.174988,-8.5 -7.9375,-8.5l-79.375031,0c-4.762512,0 -7.9375,3.400223 -7.9375,8.5s3.174988,8.5 7.9375,8.5z" clip-rule="evenodd" fill-rule="evenodd"/>
   <path id="svg_4" d="m240.124969,213.5c0,5.099792 3.174988,8.499985 7.9375,8.499985l190.500031,0c4.762512,0 7.9375,-3.400192 7.9375,-8.499985s-3.174988,-8.500015 -7.9375,-8.500015l-190.500031,0c-4.762512,0 -7.9375,3.400208 -7.9375,8.500015z" clip-rule="evenodd" fill-rule="evenodd"/>
   <path id="svg_5" d="m438.5625,306.999969l-365.125031,0c-4.762558,0 -7.9375,3.400238 -7.9375,8.500061c0,5.099762 3.174942,8.499969 7.9375,8.499969l365.125031,0c4.762512,0 7.9375,-3.400208 7.9375,-8.499969c0,-5.099823 -3.174988,-8.500061 -7.9375,-8.500061z" clip-rule="evenodd" fill-rule="evenodd"/>
   <path id="svg_6" d="m438.5625,358l-365.125031,0c-4.762558,0 -7.9375,3.400208 -7.9375,8.499969c0,5.099823 3.174942,8.500061 7.9375,8.500061l365.125031,0c4.762512,0 7.9375,-3.400238 7.9375,-8.500061c0,-5.099762 -3.174988,-8.499969 -7.9375,-8.499969z" clip-rule="evenodd" fill-rule="evenodd"/>
   <path id="svg_7" d="m438.5625,409l-365.125031,0c-4.762558,0 -7.9375,3.400238 -7.9375,8.5c0,5.099823 3.174942,8.500031 7.9375,8.500031l365.125031,0c4.762512,0 7.9375,-3.400208 7.9375,-8.500031c0,-5.099762 -3.174988,-8.5 -7.9375,-8.5z" clip-rule="evenodd" fill-rule="evenodd"/>
   <path id="svg_8" d="m438.5625,256l-365.125031,0c-4.762558,0 -7.9375,3.400177 -7.9375,8.5s3.174942,8.5 7.9375,8.5l365.125031,0c4.762512,0 7.9375,-3.400238 7.9375,-8.5s-3.174988,-8.5 -7.9375,-8.5z" clip-rule="evenodd" fill-rule="evenodd"/>
   <path id="svg_9" d="m81.374969,221.999985l111.125,0c9.525146,0 15.875,-6.799896 15.875,-17l0,-102.000008c0,-10.200104 -6.349854,-17 -15.875,-17l-111.125,0c-9.525093,0 -15.875,6.799896 -15.875,17l0,102.000008c0,10.200104 6.349907,17 15.875,17zm15.875,-102l79.375,0l0,68l-79.375,0l0,-68z" clip-rule="evenodd" fill-rule="evenodd"/>
  </g>
 </g>
</svg>