<svg width="512" height="512" xmlns="http://www.w3.org/2000/svg">
 <!-- Created with SVG-edit - http://svg-edit.googlecode.com/ -->

 <g>
  <title>Layer 1</title>
  <g id="svg_9">
   <g transform="matrix(17.8333 0 0 15.7396 -13440.5 -11832.5)" id="svg_5">
    <path id="svg_7" d="m767.940735,752.06427c-6.100037,0 -11,4.900024 -11,11c0,4 3.699951,8.299988 5,12.100037c2,5.599976 1.799927,8.899963 6,8.899963c4.199951,0 4,-3.299988 6,-8.899963c1.299927,-3.800049 5,-8.100037 5,-12.100037c0,-6.099976 -4.900024,-11 -11,-11zm2.599976,27.200012l-5,0.600037c-0.200012,-0.5 -0.400024,-1.100037 -0.599976,-1.900024c0,0 0,0 0,0l6.199951,-0.799988c-0.099976,0.299988 -0.199951,0.599976 -0.299927,0.899963c-0.100098,0.399963 -0.200073,0.799988 -0.300049,1.200012zm-5.900024,-2.299988c-0.199951,-0.600037 -0.399963,-1.200073 -0.599976,-1.900024l7.800049,0c-0.100037,0.399963 -0.200073,0.699951 -0.400024,1.099976l-6.800049,0.800049zm3.300049,5.099976c-1,0 -1.5,-0.099976 -2,-1.200012l4.199951,-0.5c-0.599976,1.600037 -1,1.700012 -2.199951,1.700012zm4.699951,-9l-9.299988,0c-0.499939,-1.099976 -1.099976,-2.200012 -1.700012,-3.200012c-1.299988,-2.299988 -2.699951,-4.799988 -2.699951,-6.799988c0,-5 4,-9 9,-9c5,0 9,4 9,9c0,2 -1.300049,4.399963 -2.700012,6.799988c-0.500061,1 -1.100037,2.100037 -1.600037,3.200012z"/>
    <path id="svg_8" d="m767.940735,757.06427c-3.300049,0 -6,2.700012 -6,6c0,0.299988 0.199951,0.5 0.5,0.5s0.5,-0.200012 0.5,-0.5c0,-2.799988 2.199951,-5 5,-5c0.299927,0 0.5,-0.200012 0.5,-0.5s-0.200073,-0.5 -0.5,-0.5z"/>
   </g>
  </g>
 </g>
</svg>