<?xml version="1.0" encoding="iso-8859-1"?>
<!-- Generator: Adobe Illustrator 16.0.4, SVG Export Plug-In . SVG Version: 6.00 Build 0)  -->
<!DOCTYPE svg PUBLIC "-//W3C//DTD SVG 1.1//EN" "http://www.w3.org/Graphics/SVG/1.1/DTD/svg11.dtd">
<svg version="1.1" id="Capa_1" xmlns="http://www.w3.org/2000/svg" xmlns:xlink="http://www.w3.org/1999/xlink" x="0px" y="0px"
	 width="13.7px" height="15px" viewBox="0 0 13.7 15" style="enable-background:new 0 0 13.7 15;" xml:space="preserve">
<path style="fill:#010002;" d="M12.226,8.922c-2.167,2.602-4.417,1.124-5.15,0.519c0.566-0.618,0.825-0.954,1.808-1.764
	c1.016,0.415,2.833-0.373,2.833-0.373c-1.223,0.32-2.157,0.139-2.489,0.051c0.071-0.056,1.277-0.929,1.642-1.434
	c1.01,0.031,1.844-0.836,1.844-0.836C12.686,5.062,12.176,5.453,11.21,5.5c1-1.469,0.954-2.82,0.954-2.82s-0.369,1.233-1.308,2.586
	c-0.193-0.96,0.052-1.613,0.024-1.635c0,0-0.654,1.078-0.352,2.069c-0.514,0.587-1.324,1.094-1.622,1.321
	C8.884,6.96,8.572,5.936,8.875,4.423c0,0-0.823,1.902-0.308,2.889C7.936,7.797,7.768,7.916,6.714,9.094
	c-2.386-1.786-0.337-4.98,1.45-5.725C10.001,2.603,10.767,2.757,12.451,0C14.295,2.732,13.993,6.801,12.226,8.922z M2.043,8.645
	c1.085,0.496,1.838,1.17,2.355,1.814c0.006-0.019,0.014-0.034,0.02-0.056C5.401,6.867,0,7.359,0,7.359s0.746,1.148,1.162,2.4
	c0.481,1.451,2.447,2.657,3.153,0.934C3.805,10.007,3.076,9.256,2.043,8.645z M7.076,9.44C7.069,9.433,6.703,9.104,6.708,9.097
	c-0.926,1.02-1.287,1.891-1.375,3.001c-0.14-0.382-0.42-0.993-0.936-1.639c-0.024,0.085-0.053,0.161-0.083,0.234
	c0.549,0.739,0.761,1.746,0.886,2.076c0,0.922,0.101,1.383,0.182,2.152c0,0,0.496,0.293,0.634-0.254
	C5.738,14.205,5.463,11.019,7.076,9.44z"/>
<g>
</g>
<g>
</g>
<g>
</g>
<g>
</g>
<g>
</g>
<g>
</g>
<g>
</g>
<g>
</g>
<g>
</g>
<g>
</g>
<g>
</g>
<g>
</g>
<g>
</g>
<g>
</g>
<g>
</g>
</svg>
