<?xml version="1.0" encoding="utf-8"?>
<!-- Generator: Adobe Illustrator 17.1.0, SVG Export Plug-In . SVG Version: 6.00 Build 0)  -->
<!DOCTYPE svg PUBLIC "-//W3C//DTD SVG 1.1//EN" "http://www.w3.org/Graphics/SVG/1.1/DTD/svg11.dtd">
<svg version="1.1" id="Layer_1" xmlns="http://www.w3.org/2000/svg" xmlns:xlink="http://www.w3.org/1999/xlink" x="0px" y="0px"
	 viewBox="0 0 512 512" enable-background="new 0 0 512 512" xml:space="preserve">
<path fill="#000000" d="M405.4-0.4H104.9c-37.5,0-67.8,30.4-67.8,67.8v376.7c0,37.5,30.4,67.8,67.8,67.8h300.5
	c37.5,0,67.8-30.4,67.8-67.8V67.4C473.2,29.9,442.9-0.4,405.4-0.4z M80.3,51.5h347.1v84.7H80.3V51.5z M181.9,462.8H80.3v-84.7h101.6
	V462.8z M181.9,356.9H80.3v-84.7h101.6V356.9z M181.9,251.1H80.3v-84.7h101.6V251.1z M304.7,462.8H203v-84.7h101.6V462.8z
	 M304.7,356.9H203v-84.7h101.6V356.9z M304.7,251.1H203v-84.7h101.6V251.1z M427.5,462.8H325.8v-84.7h101.6V462.8z M427.5,356.9
	H325.8v-84.7h101.6V356.9z M427.5,251.1H325.8v-84.7h101.6V251.1z"/>
</svg>
