<svg width="512" height="512" xmlns="http://www.w3.org/2000/svg">
<g>
  <title>Layer 1</title>
  <g id="svg_62">
   <g transform="matrix(15.8097 0 0 14.3463 -13741.5 -16284.3)" id="svg_17">
    <path id="svg_49" d="m894.140991,1148.562134c-0.200134,-0.300049 -0.5,-0.400024 -0.799927,-0.400024l-1,0c-0.600098,0 -1,0.400024 -1,1l0,6c0,0.599976 0.399902,1 1,1l4,0c0.599792,0 1,-0.400024 1,-1l0,-1.5c0,-0.200073 -0.100159,-0.400024 -0.200073,-0.599976l-3,-4.5zm2.200073,6.599976l-4,0l0,-6l1,0l3,4.5l0,1.5z"/>
    <path id="svg_50" d="m900.841064,1152.462036l-4,-6c-0.599976,-0.799927 -1.5,-1.299927 -2.5,-1.299927l-4,0l0,-2c0,-1.700073 -1.300049,-3 -3,-3l-15,0c-1.700073,0 -3,1.299927 -3,3l0,11c0,1.699951 1.299927,3 3,3l0,0l0,3c0,1.699951 1.299927,3 3,3l1.099976,0c0.400024,1.699951 2,3 3.900024,3c1.899841,0 3.399902,-1.300049 3.899841,-3l5.300049,0c0.400085,1.699951 2,3 3.900085,3c1.900024,0 3.400024,-1.300049 3.900024,-3l1.099976,0c1.699951,0 3,-1.300049 3,-3l0,-6c-0.099976,-0.599976 -0.300049,-1.199951 -0.599976,-1.700073zm-28.5,2.700073c-0.600098,0 -1,-0.400024 -1,-1l0,-11c0,-0.599976 0.399902,-1 1,-1l15,0c0.599976,0 1,0.400024 1,1l0,2l0,2l0,7c0,0.599976 -0.400024,1 -1,1l-15,0zm8,9c-1.100159,0 -2,-0.900024 -2,-2s0.899841,-2 2,-2c1.099976,0 2,0.900024 2,2s-0.900024,2 -2,2zm13,0c-1.099976,0 -2,-0.900024 -2,-2s0.900024,-2 2,-2c1.099976,0 2,0.900024 2,2s-0.900024,2 -2,2zm6,-4c0,0.599976 -0.400208,1 -1,1l-1.099976,0c-0.400024,-1.700073 -2,-3 -3.900024,-3c-1.900024,0 -3.400024,1.299927 -3.900024,3l-5.300049,0c-0.400024,-1.700073 -2,-3 -3.900085,-3c-1.899841,0 -3.399841,1.299927 -3.899841,3l-1,0c-0.600098,0 -1,-0.400024 -1,-1l0,-3l13,0c1.699951,0 3,-1.299927 3,-3l0,-7l4,0c0.299927,0 0.599792,0.200073 0.799927,0.400024l4,6c0.100098,0.199951 0.200073,0.400024 0.200073,0.599976l0,6z"/>
   </g>
   <rect transform="matrix(15.8097 0 0 14.3463 -13741.5 -16284.3)" id="svg_51" height="8" width="2" y="1144.162109" x="878.340968"/>
   <rect transform="matrix(15.8097 0 0 14.3463 -13741.5 -16284.3)" id="svg_52" height="2" width="8" y="1147.162109" x="875.340968"/>
  </g>
 </g>
</svg>