<?xml version="1.0" encoding="utf-8"?>
<!-- Generator: Adobe Illustrator 17.0.2, SVG Export Plug-In . SVG Version: 6.00 Build 0)  -->
<!DOCTYPE svg PUBLIC "-//W3C//DTD SVG 1.0//EN" "http://www.w3.org/TR/2001/REC-SVG-20010904/DTD/svg10.dtd">
<svg version="1.0" id="Layer_1" xmlns="http://www.w3.org/2000/svg" xmlns:xlink="http://www.w3.org/1999/xlink" x="0px" y="0px"
	 width="22.937px" height="23.881px" viewBox="0 0 22.937 23.881" enable-background="new 0 0 22.937 23.881" xml:space="preserve">
<g>
	<rect x="4.421" y="0" width="14.094" height="0.944"/>
	<rect x="5.805" y="22.937" width="11.327" height="0.944"/>
	<path d="M20.443,1.079l-1.264,1.517H17.8c0.061-0.814,0.075-1.315,0.075-1.315s-2.868,0-6.406,0s-6.407,0-6.407,0
		s0.013,0.501,0.075,1.315H3.758L2.493,1.079H0l0.035,0.64C0.041,1.82,0.181,4.23,1.155,6.781c1.318,3.452,3.537,5.482,6.421,5.882
		c0.799,1.419,1.853,2.462,3.236,2.715h-0.03c0,0,0.091,0.519,0.116,1.224c-0.362,0.202-0.61,0.583-0.61,1.027
		c0,0.37,0.173,0.695,0.439,0.912c-0.179,0.725-0.522,1.383-1.159,1.718c-0.278,0.146-0.432,0.249-0.496,0.32H8.164l-1.618,1.954
		h9.846l-1.618-1.954h-0.908c-0.064-0.07-0.218-0.173-0.496-0.32c-0.637-0.335-0.979-0.993-1.159-1.718
		c0.266-0.216,0.439-0.542,0.439-0.912c0-0.444-0.248-0.826-0.61-1.027c0.024-0.705,0.116-1.224,0.116-1.224h-0.03
		c1.383-0.253,2.437-1.296,3.236-2.715c2.884-0.4,5.103-2.43,6.421-5.882c0.974-2.551,1.115-4.961,1.12-5.062l0.035-0.64H20.443z
		 M1.311,2.293h0.614L3.189,3.81h2.058c0.217,2.076,0.685,5.052,1.675,7.479C2.623,10.05,1.551,4.244,1.311,2.293z M11.468,6.877
		c-2.022,0-3.662-0.721-3.662-1.609c0-0.889,1.639-1.609,3.662-1.609c2.022,0,3.662,0.721,3.662,1.609
		C15.13,6.157,13.491,6.877,11.468,6.877z M16.015,11.289c0.99-2.427,1.458-5.403,1.675-7.479h2.058l1.264-1.517h0.614
		C21.385,4.244,20.313,10.05,16.015,11.289z"/>
</g>
</svg>
